<?xml version="1.0" encoding="utf-8"?>
<!-- Generator: Adobe Illustrator 16.0.0, SVG Export Plug-In . SVG Version: 6.00 Build 0)  -->
<!DOCTYPE svg PUBLIC "-//W3C//DTD SVG 1.1//EN" "http://www.w3.org/Graphics/SVG/1.1/DTD/svg11.dtd">
<svg version="1.1" id="Layer_1" xmlns="http://www.w3.org/2000/svg" xmlns:xlink="http://www.w3.org/1999/xlink" x="0px" y="0px"
	 width="23.975px" height="25.401px" viewBox="173.147 109.335 23.975 25.401"
	 enable-background="new 173.147 109.335 23.975 25.401" xml:space="preserve">
<path id="arrow" d="M196.463,118.68l-7.941-7.942c-0.924-0.923-2.133-1.389-3.346-1.397c-0.014-0.001-0.026-0.005-0.041-0.005
	c-0.014,0-0.026,0.004-0.042,0.005c-1.211,0.009-2.421,0.475-3.345,1.397l-7.942,7.942c-0.878,0.879-0.878,2.304,0,3.183
	c0.879,0.879,2.304,0.879,3.183,0l5.896-5.897v16.521c0,1.242,1.007,2.25,2.25,2.25s2.25-1.008,2.25-2.25v-16.521l5.896,5.897
	c0.439,0.439,1.016,0.659,1.591,0.659c0.576,0,1.151-0.22,1.591-0.659C197.342,120.983,197.342,119.559,196.463,118.68"/>
</svg>
