<svg xmlns="http://www.w3.org/2000/svg" width="39.86" height="39.86" viewBox="0 0 39.86 39.86">
  <title>line</title>
  <g id="圖層_2" data-name="圖層 2">
    <g id="圖層_1-2" data-name="圖層 1">
      <g>
        <path d="M22.46,16.94a.57.57,0,0,0-.57.56v2.59l-2.27-3a.55.55,0,0,0-.44-.18.57.57,0,0,0-.55.58v4.22a.57.57,0,0,0,.57.56.56.56,0,0,0,.56-.56V19.16l2.31,3a.56.56,0,0,0,.38.15.59.59,0,0,0,.57-.58V17.5A.56.56,0,0,0,22.46,16.94Z"/>
        <rect x="16.67" y="16.94" width="1.12" height="5.37" rx="0.44" ry="0.44"/>
        <path d="M15.57,21.18H13.89V17.5a.56.56,0,0,0-.56-.56.57.57,0,0,0-.57.56v4.24a.57.57,0,0,0,.57.56h2.24a.56.56,0,0,0,0-1.12Z"/>
        <path d="M19.93,0A19.93,19.93,0,1,0,39.86,19.93,19.93,19.93,0,0,0,19.93,0Zm11,19.86a5.59,5.59,0,0,1-.09.66A7.21,7.21,0,0,1,30,22.93c-.19.35-1.16,1.7-1.45,2.06a26.12,26.12,0,0,1-8.89,6.41.6.6,0,0,1-.86-.61L19,28.73a.59.59,0,0,0-.53-.66c-5.38-.56-9.54-4.23-9.54-8.66,0-4.83,4.92-8.74,11-8.74,5.89,0,10.7,3.7,11,8.33A7.64,7.64,0,0,1,30.91,19.86Z"/>
        <path d="M26.67,18.06a.56.56,0,0,0,0-1.12H24.42a.56.56,0,0,0-.56.56v4.24a.56.56,0,0,0,.56.56h2.25a.56.56,0,0,0,0-1.12H25v-1h1.69a.56.56,0,1,0,0-1.12H25v-1Z"/>
      </g>
    </g>
  </g>
</svg>
